<mxfile host="app.diagrams.net" modified="2024-02-02T13:57:22.138Z" agent="Mozilla/5.0 (Macintosh; Intel Mac OS X 10_15_7) AppleWebKit/537.36 (KHTML, like Gecko) Chrome/121.0.0.0 Safari/537.36" etag="UIzSwTc5cnU_eDi04EjC" version="23.1.1" type="google">
  <diagram name="Page-1" id="WxrKO_SDj-rNWRS2Pezv">
    <mxGraphModel grid="1" page="1" gridSize="10" guides="1" tooltips="1" connect="1" arrows="1" fold="1" pageScale="1" pageWidth="850" pageHeight="1100" math="0" shadow="0">
      <root>
        <mxCell id="0" />
        <mxCell id="1" parent="0" />
        <mxCell id="sZDChy0EWR82rsXEZtJY-6" style="edgeStyle=orthogonalEdgeStyle;rounded=0;orthogonalLoop=1;jettySize=auto;html=1;exitX=1;exitY=0.5;exitDx=0;exitDy=0;entryX=0;entryY=0.5;entryDx=0;entryDy=0;fontStyle=1;fillColor=#f5f5f5;strokeColor=#666666;" edge="1" parent="1" source="sZDChy0EWR82rsXEZtJY-1" target="sZDChy0EWR82rsXEZtJY-2">
          <mxGeometry relative="1" as="geometry" />
        </mxCell>
        <mxCell id="sZDChy0EWR82rsXEZtJY-1" value="Select Template" style="rounded=1;whiteSpace=wrap;html=1;fontStyle=1;fillColor=#f5f5f5;strokeColor=#666666;fontColor=#333333;" vertex="1" parent="1">
          <mxGeometry x="40" y="50" width="120" height="60" as="geometry" />
        </mxCell>
        <mxCell id="sZDChy0EWR82rsXEZtJY-7" style="edgeStyle=orthogonalEdgeStyle;rounded=0;orthogonalLoop=1;jettySize=auto;html=1;exitX=1;exitY=0.5;exitDx=0;exitDy=0;entryX=0;entryY=0.5;entryDx=0;entryDy=0;fontStyle=1;fillColor=#f5f5f5;strokeColor=#666666;" edge="1" parent="1" source="sZDChy0EWR82rsXEZtJY-2" target="sZDChy0EWR82rsXEZtJY-3">
          <mxGeometry relative="1" as="geometry" />
        </mxCell>
        <mxCell id="sZDChy0EWR82rsXEZtJY-2" value="Add fields for user to input (name, date, signature) and place them in correct place (like Odoo)" style="rounded=1;whiteSpace=wrap;html=1;fontStyle=1;fillColor=#f5f5f5;strokeColor=#666666;fontColor=#333333;" vertex="1" parent="1">
          <mxGeometry x="210" y="30" width="200" height="100" as="geometry" />
        </mxCell>
        <mxCell id="sZDChy0EWR82rsXEZtJY-8" style="edgeStyle=orthogonalEdgeStyle;rounded=0;orthogonalLoop=1;jettySize=auto;html=1;exitX=0.5;exitY=1;exitDx=0;exitDy=0;entryX=0.5;entryY=0;entryDx=0;entryDy=0;fontStyle=1;fillColor=#f5f5f5;strokeColor=#666666;" edge="1" parent="1" source="sZDChy0EWR82rsXEZtJY-3" target="sZDChy0EWR82rsXEZtJY-4">
          <mxGeometry relative="1" as="geometry" />
        </mxCell>
        <mxCell id="sZDChy0EWR82rsXEZtJY-3" value="for each field added assign a specific person to fill them and send to mail" style="rounded=1;whiteSpace=wrap;html=1;fontStyle=1;fillColor=#f5f5f5;strokeColor=#666666;fontColor=#333333;" vertex="1" parent="1">
          <mxGeometry x="470" y="30" width="200" height="100" as="geometry" />
        </mxCell>
        <mxCell id="sZDChy0EWR82rsXEZtJY-9" style="edgeStyle=orthogonalEdgeStyle;rounded=0;orthogonalLoop=1;jettySize=auto;html=1;exitX=0;exitY=0.5;exitDx=0;exitDy=0;entryX=1;entryY=0.5;entryDx=0;entryDy=0;fontStyle=1;fillColor=#f5f5f5;strokeColor=#666666;" edge="1" parent="1" source="sZDChy0EWR82rsXEZtJY-4" target="sZDChy0EWR82rsXEZtJY-5">
          <mxGeometry relative="1" as="geometry" />
        </mxCell>
        <mxCell id="sZDChy0EWR82rsXEZtJY-4" value="Monitor the status of the document from the dashboard" style="rounded=1;whiteSpace=wrap;html=1;fontStyle=1;fillColor=#f5f5f5;strokeColor=#666666;fontColor=#333333;" vertex="1" parent="1">
          <mxGeometry x="470" y="190" width="200" height="100" as="geometry" />
        </mxCell>
        <mxCell id="sZDChy0EWR82rsXEZtJY-5" value="sign using the separate parsing page and send the document back" style="rounded=1;whiteSpace=wrap;html=1;fontStyle=1;fillColor=#f5f5f5;strokeColor=#666666;fontColor=#333333;" vertex="1" parent="1">
          <mxGeometry x="210" y="190" width="200" height="100" as="geometry" />
        </mxCell>
        <mxCell id="sZDChy0EWR82rsXEZtJY-15" style="edgeStyle=orthogonalEdgeStyle;rounded=0;orthogonalLoop=1;jettySize=auto;html=1;exitX=1;exitY=0.5;exitDx=0;exitDy=0;entryX=0;entryY=0;entryDx=0;entryDy=0;curved=1;fontStyle=1;fillColor=#f5f5f5;strokeColor=#666666;" edge="1" parent="1" source="sZDChy0EWR82rsXEZtJY-10" target="sZDChy0EWR82rsXEZtJY-13">
          <mxGeometry relative="1" as="geometry" />
        </mxCell>
        <mxCell id="sZDChy0EWR82rsXEZtJY-10" value="Get template from Storage" style="rounded=1;whiteSpace=wrap;html=1;fontStyle=1;fillColor=#f5f5f5;strokeColor=#666666;fontColor=#333333;" vertex="1" parent="1">
          <mxGeometry x="60" y="370" width="120" height="60" as="geometry" />
        </mxCell>
        <mxCell id="sZDChy0EWR82rsXEZtJY-14" style="edgeStyle=orthogonalEdgeStyle;rounded=0;orthogonalLoop=1;jettySize=auto;html=1;exitX=1;exitY=0.5;exitDx=0;exitDy=0;entryX=0;entryY=0.5;entryDx=0;entryDy=0;fontStyle=1;fillColor=#f5f5f5;strokeColor=#666666;" edge="1" parent="1" source="sZDChy0EWR82rsXEZtJY-11" target="sZDChy0EWR82rsXEZtJY-13">
          <mxGeometry relative="1" as="geometry" />
        </mxCell>
        <mxCell id="sZDChy0EWR82rsXEZtJY-11" value="Upload Template" style="rounded=1;whiteSpace=wrap;html=1;fontStyle=1;fillColor=#f5f5f5;strokeColor=#666666;fontColor=#333333;" vertex="1" parent="1">
          <mxGeometry x="60" y="460" width="120" height="60" as="geometry" />
        </mxCell>
        <mxCell id="sZDChy0EWR82rsXEZtJY-16" style="edgeStyle=orthogonalEdgeStyle;rounded=0;orthogonalLoop=1;jettySize=auto;html=1;exitX=1;exitY=0.5;exitDx=0;exitDy=0;entryX=0;entryY=1;entryDx=0;entryDy=0;curved=1;fontStyle=1;fillColor=#f5f5f5;strokeColor=#666666;" edge="1" parent="1" source="sZDChy0EWR82rsXEZtJY-12" target="sZDChy0EWR82rsXEZtJY-13">
          <mxGeometry relative="1" as="geometry" />
        </mxCell>
        <mxCell id="sZDChy0EWR82rsXEZtJY-12" value="Create and edit template with AI help and your team" style="rounded=1;whiteSpace=wrap;html=1;fontStyle=1;fillColor=#f5f5f5;strokeColor=#666666;fontColor=#333333;" vertex="1" parent="1">
          <mxGeometry x="60" y="550" width="120" height="60" as="geometry" />
        </mxCell>
        <mxCell id="sZDChy0EWR82rsXEZtJY-19" style="edgeStyle=orthogonalEdgeStyle;rounded=0;orthogonalLoop=1;jettySize=auto;html=1;exitX=1;exitY=0.5;exitDx=0;exitDy=0;entryX=0;entryY=0.5;entryDx=0;entryDy=0;fontStyle=1;fillColor=#f5f5f5;strokeColor=#666666;" edge="1" parent="1" source="sZDChy0EWR82rsXEZtJY-13" target="sZDChy0EWR82rsXEZtJY-17">
          <mxGeometry relative="1" as="geometry" />
        </mxCell>
        <mxCell id="sZDChy0EWR82rsXEZtJY-13" value="Add the fields where you want user input (name, date, signature" style="rounded=1;whiteSpace=wrap;html=1;fontStyle=1;fillColor=#f5f5f5;strokeColor=#666666;fontColor=#333333;" vertex="1" parent="1">
          <mxGeometry x="270" y="455" width="200" height="70" as="geometry" />
        </mxCell>
        <mxCell id="sZDChy0EWR82rsXEZtJY-20" style="edgeStyle=orthogonalEdgeStyle;rounded=0;orthogonalLoop=1;jettySize=auto;html=1;exitX=0.5;exitY=1;exitDx=0;exitDy=0;fontStyle=1;fillColor=#f5f5f5;strokeColor=#666666;" edge="1" parent="1" source="sZDChy0EWR82rsXEZtJY-17" target="sZDChy0EWR82rsXEZtJY-18">
          <mxGeometry relative="1" as="geometry" />
        </mxCell>
        <mxCell id="sZDChy0EWR82rsXEZtJY-17" value="Assign signature and each field to specific person with AI recommendation to assist&amp;nbsp;" style="rounded=1;whiteSpace=wrap;html=1;fontStyle=1;fillColor=#f5f5f5;strokeColor=#666666;fontColor=#333333;" vertex="1" parent="1">
          <mxGeometry x="540" y="450" width="220" height="80" as="geometry" />
        </mxCell>
        <mxCell id="sZDChy0EWR82rsXEZtJY-18" value="Monitor and track status of the document" style="rounded=1;whiteSpace=wrap;html=1;fontStyle=1;fillColor=#f5f5f5;strokeColor=#666666;fontColor=#333333;" vertex="1" parent="1">
          <mxGeometry x="555" y="580" width="190" height="60" as="geometry" />
        </mxCell>
        <mxCell id="sZDChy0EWR82rsXEZtJY-25" style="edgeStyle=orthogonalEdgeStyle;rounded=0;orthogonalLoop=1;jettySize=auto;html=1;exitX=1;exitY=0.5;exitDx=0;exitDy=0;entryX=0;entryY=0.5;entryDx=0;entryDy=0;fontStyle=1;fillColor=#f5f5f5;strokeColor=#666666;" edge="1" parent="1" source="sZDChy0EWR82rsXEZtJY-21" target="sZDChy0EWR82rsXEZtJY-22">
          <mxGeometry relative="1" as="geometry" />
        </mxCell>
        <mxCell id="sZDChy0EWR82rsXEZtJY-21" value="Receive email with request to fill document" style="rounded=1;whiteSpace=wrap;html=1;fontStyle=1;fillColor=#f5f5f5;strokeColor=#666666;fontColor=#333333;" vertex="1" parent="1">
          <mxGeometry x="60" y="700" width="120" height="60" as="geometry" />
        </mxCell>
        <mxCell id="sZDChy0EWR82rsXEZtJY-26" style="edgeStyle=orthogonalEdgeStyle;rounded=0;orthogonalLoop=1;jettySize=auto;html=1;exitX=1;exitY=0.5;exitDx=0;exitDy=0;entryX=0;entryY=0.5;entryDx=0;entryDy=0;fontStyle=1;fillColor=#f5f5f5;strokeColor=#666666;" edge="1" parent="1" source="sZDChy0EWR82rsXEZtJY-22" target="sZDChy0EWR82rsXEZtJY-23">
          <mxGeometry relative="1" as="geometry" />
        </mxCell>
        <mxCell id="sZDChy0EWR82rsXEZtJY-22" value="A separate web page for this process" style="rounded=1;whiteSpace=wrap;html=1;fontStyle=1;fillColor=#f5f5f5;strokeColor=#666666;fontColor=#333333;" vertex="1" parent="1">
          <mxGeometry x="240" y="700" width="120" height="60" as="geometry" />
        </mxCell>
        <mxCell id="sZDChy0EWR82rsXEZtJY-27" style="edgeStyle=orthogonalEdgeStyle;rounded=0;orthogonalLoop=1;jettySize=auto;html=1;exitX=1;exitY=0.5;exitDx=0;exitDy=0;entryX=0;entryY=0.5;entryDx=0;entryDy=0;fontStyle=1;fillColor=#f5f5f5;strokeColor=#666666;" edge="1" parent="1" source="sZDChy0EWR82rsXEZtJY-23" target="sZDChy0EWR82rsXEZtJY-24">
          <mxGeometry relative="1" as="geometry" />
        </mxCell>
        <mxCell id="sZDChy0EWR82rsXEZtJY-23" value="Send back the finished document" style="rounded=1;whiteSpace=wrap;html=1;fontStyle=1;fillColor=#f5f5f5;strokeColor=#666666;fontColor=#333333;" vertex="1" parent="1">
          <mxGeometry x="420" y="700" width="120" height="60" as="geometry" />
        </mxCell>
        <mxCell id="sZDChy0EWR82rsXEZtJY-24" value="Send reminder and notification after a while if not completed" style="rounded=1;whiteSpace=wrap;html=1;fontStyle=1;fillColor=#f5f5f5;strokeColor=#666666;fontColor=#333333;" vertex="1" parent="1">
          <mxGeometry x="610" y="695" width="180" height="70" as="geometry" />
        </mxCell>
        <mxCell id="sZDChy0EWR82rsXEZtJY-28" value="Signatory" style="text;html=1;align=center;verticalAlign=middle;resizable=0;points=[];autosize=1;fontStyle=1;fontSize=15;" vertex="1" parent="1">
          <mxGeometry x="30" y="665" width="90" height="30" as="geometry" />
        </mxCell>
        <mxCell id="sZDChy0EWR82rsXEZtJY-29" value="Main User" style="text;html=1;align=center;verticalAlign=middle;resizable=0;points=[];autosize=1;fontStyle=1;fontSize=15;" vertex="1" parent="1">
          <mxGeometry x="30" y="338" width="100" height="30" as="geometry" />
        </mxCell>
        <mxCell id="sZDChy0EWR82rsXEZtJY-30" value="Traditional Process" style="text;html=1;align=center;verticalAlign=middle;resizable=0;points=[];autosize=1;fontStyle=1;fontSize=15;" vertex="1" parent="1">
          <mxGeometry x="15" y="10" width="160" height="30" as="geometry" />
        </mxCell>
      </root>
    </mxGraphModel>
  </diagram>
</mxfile>
